<svg xmlns="http://www.w3.org/2000/svg" id="Layer_1" viewBox="0 0 228 180"><style>.st0,.st2,.st4{stroke:#a1b3c6;stroke-linecap:round;stroke-linejoin:round}.st0{fill:#d6d8d6;stroke-miterlimit:10}.st2,.st4{fill:none}.st4{fill:#e3e4e5;stroke-miterlimit:10}.st7{fill:#d3d3d3}.st11{fill:#ecf1ec}.st12{fill:none;stroke:#a1b3c6;stroke-linecap:round;stroke-linejoin:round;stroke-miterlimit:10}</style><path d="M113.5 74.2v14.5l29.6-.9 10.5-7.5-5.6-7.7z" class="st0"/><path d="M113.5 74.2v19.6L67.2 79.1z" style="fill:#a9b9bf;stroke:#a1b3c6;stroke-linecap:round;stroke-linejoin:round;stroke-miterlimit:10"/><path d="M51.8 119.4s-.1-.1-.3-.4" class="st2"/><path d="M50.3 117.5c-3.6-4.7-11.5-16.4-4.2-19.8 8.8-4.1 11.8 14.6-5 8.5S33.2 81 47 84c13.4 2.9 106.9 21.3 127.6 18.3 20-2.9 25.9-10.8 24.7-17.1-1.8-9.9-13.8-11.5-15.3-4.6-1.8 7.8 19.5 14.7 19.5-1.5V55.9" style="fill:none;stroke:#a1b3c6;stroke-linecap:round;stroke-linejoin:round;stroke-dasharray:.9984,1.9968"/><path d="M203.5 55v-.5" class="st2"/><path d="m105.5 146.5-38-11.5v-34.8l38-12.2z" class="st0"/><path d="M67 79.1 51.7 95.8l39.9 11 13.9-19z" class="st4"/><path d="M105.5 87.5v59.2l47-11.2v-36" style="fill:#cdcfd1;stroke:#a1b3c6;stroke-linecap:round;stroke-linejoin:round;stroke-miterlimit:10"/><path d="m105.5 87.8 47.9-7.5 18.1 14.9-52.4 11.6z" class="st4"/><path d="m67 79.1 46.3-4.9L101.6 55l-48.5 4.9zM124.8 55l-11.5 19.2 40.1 6.1 14.4-20.8z" class="st0"/><path d="M167.5 113.5v8m-113-85v8m109 73h8m-113-77h-8" style="fill:none;stroke:#61b059;stroke-linecap:round;stroke-linejoin:round;stroke-miterlimit:10"/><path d="M169.8 153.6c-3.7 1.6-9.1-.8-12.7-3.4-2.3-1.7-1.2-4.5 1-4.5 0 0 2 1.5 3.5 2.9s8.2 5 8.2 5z" class="st7"/><path d="M172.5 137.4c-.7-.8-1.4-1.5-1.9-2.2-2.6 2.3-10.4 9-12.3 10.4 1 1.3 2.3 2.7 3.8 3.7.5.3 1 .7 1.5 1 1.3.9 9.8-8.8 11.5-10.7-1-.6-1.8-1.3-2.6-2.2z" class="st0"/><path d="M30.4 149.5c-1.4 0-.7 2.1 2.3 3.3 1.5.6 6.6 1.3 6.7-3.3 0 0-1.2-.2-3.1.4-1.9.5-5.9.3-5.9-.4" style="fill:#cbcbca"/><path d="m166.7 128.2-11.8 11.2s2.2 6.5 7.1 9.9c4.9 3.3 9.2 4.9 9.2 4.9l11.9-11.7s-6-.2-10.6-5.1-5.8-9.2-5.8-9.2z" style="fill:#ecf1ec;stroke:#a1b3c6;stroke-linecap:round;stroke-linejoin:round;stroke-miterlimit:10"/><path d="M56.8 144.5s-17.9 5.1-22.4 5.6c-4.5.6-4.9-1.9-4.9-1.9l20.6-5.1s1.7 1.3 4.9 1.5 6.7-1.6 6.1-7.2c-.6-5.6-2.8-9.2-2.8-9.2l-21.4 3.9s4.5 7.2.6 13.7" style="fill:#fff;stroke:#a1b3c6;stroke-linecap:round;stroke-linejoin:round;stroke-miterlimit:10"/><path d="m158.2 140.3 7.9-7.4m-6.7 9.6 7.7-8m-6.5 9.4 5.5-5.1m-4.5 7.4 7.8-7.7m-6.1 8.7 8.1-8m-130-4.7 15.1-2.8M41.6 137l15.5-2.5m-15.5 4.7 16.3-2.8m-15.9 5 9.5-1.8m-9.8 3.9 16.3-3.2" class="st0"/><path d="M140.6 65.4s.3 6.5 7.1 3.7c5.7-2.4 1.2-8 1.2-8s4.3-2.7 0-7.9c-4.3-5.1-9.7-.3-9.7-.3s-3.7-2.8-7.2 1c-3.4 3.8 1.1 8.7 1.1 8.7l-5.9 14.2 13.8-8.2" class="st11"/><path d="M137.8 58.8s-3.2 1.4-5-2.3c-.4-.9-.7-1.7-.9-2.4-2.2 2.6-.7 5.8.4 7.4 2.2 0 4.5-.6 5.5-2.7zm4 .7s-.9-2.9 2.2-4.9c3.1-2 5.9 0 6 0-.3-.5-.6-.9-1-1.4-4.3-5.1-9.7-.3-9.7-.3-2 4.2 2.5 6.6 2.5 6.6zm5.9 9.6c.3-.1.7-.3 1-.5 4.7-2.5.2-7.5.2-7.5l-2.6 1.5c.1 0 3.6 1 1.4 6.5z" class="st7"/><path d="M140.6 65.4s.3 6.5 7.1 3.7c5.7-2.4 1.2-8 1.2-8s4.3-2.7 0-7.9c-4.3-5.1-9.7-.3-9.7-.3s-3.7-2.8-7.2 1c-3.4 3.8 1.1 8.7 1.1 8.7l-5.9 14.2 13.8-8.2" class="st12"/><path d="M101 56v24L87.2 60.9s-7 3.4-10.9-3.1c-3.8-6.2 4.6-10.1 4.6-10.1s-1.9-9 6.5-11.1c8.4-2.1 10.8 5.1 10.8 5.1s7.8-.5 8.7 6.5c.9 7-4.6 9.6-10.6 7" class="st11"/><path d="M90 48.8s-3.7-.9-3.2-5.6c.3-2.8 2.5-5.3 4.2-6.9-1 0-2 .1-3.2.4-8.4 2.1-6.5 11.1-6.5 11.1 2.5 3.7 8.7 1 8.7 1zm17.7.7s.1 0 0 0c.1-.3.1-.8 0-1.2-.9-7-8.7-6.5-8.7-6.5v4.8c0-.1 5.4-.4 8.7 2.9zm-19.9 3.4s0 3.5-5.8 5.3c-2.9.9-4.6.1-5.6-.9.1.2.2.3.3.5 3.9 6.5 10.9 3.1 10.9 3.1 2.9-3.4.2-8 .2-8z" class="st7"/><path d="M101.5 56.5V80L87.7 60.9s-7 3.4-10.9-3.1c-3.8-6.2 4.6-10.1 4.6-10.1s-1.9-9 6.5-11.1c8.4-2.1 10.8 5.1 10.8 5.1s7.8-.5 8.7 6.5c.9 7-4.6 9.6-10.6 7m106.7-6.5s-1.4 1.6-3.4.8c-2.5-.9-2.6-2.7-2.2-4.3.4-1.6-.6-2.1-2-4s-.4-5.2 2.6-5.7c3.8-.7 5.1 2.7 5.1 2.7v10.5z" class="st12"/><path d="M203.5 48.7s1.4 1.6 3.4.8c2.5-.9 2.6-2.7 2.2-4.3-.4-1.6.6-2.1 2-4s.4-5.2-2.6-5.7c-3.8-.7-5.1 2.7-5.1 2.7v10.5zm0-10.2 1.3-4.7m-1.3 4.7-1.9-4.5" class="st12"/></svg>