<svg xmlns="http://www.w3.org/2000/svg" viewBox="0 0 24 24"><defs><style>.cls-1{fill:#fff}</style></defs><path d="M21.2 23.75H2.8a1.25 1.25 0 0 1-1.25-1.25v-15a.76.76 0 0 1 .75-.75h19.4a.76.76 0 0 1 .75.75v15a1.25 1.25 0 0 1-1.25 1.25zm-18.15-1.5H21v-14H3.05z" class="cls-1"/><path d="M14.51 7.26c-1.23 0-2.28-.1-2.5-.12a.76.76 0 0 1-.61-1.07c.2-.44 2-4.32 3.74-5.28a3.68 3.68 0 0 1 5.09 1 3.12 3.12 0 0 1 .15 2.71 4.41 4.41 0 0 1-1.92 2.16 9 9 0 0 1-3.95.6zm-1.26-1.54c1.63.08 3.69 0 4.47-.41A2.86 2.86 0 0 0 19 3.9a1.63 1.63 0 0 0-.05-1.42 2.22 2.22 0 0 0-3-.39c-.85.44-1.95 2.19-2.7 3.63zm2.26-4.28z" class="cls-1"/><path d="M9.68 7.26a9 9 0 0 1-3.95-.65 4.41 4.41 0 0 1-1.92-2.16A3.12 3.12 0 0 1 4 1.74c.91-1.61 3.2-2 5.09-.95 1.7 1 3.53 4.84 3.74 5.28a.76.76 0 0 1 0 .69.78.78 0 0 1-.58.38c-.25.02-1.34.12-2.57.12zM6.84 1.68a1.76 1.76 0 0 0-1.58.8 1.63 1.63 0 0 0 0 1.42 2.86 2.86 0 0 0 1.21 1.41c.78.44 2.84.49 4.47.41-.76-1.44-1.85-3.19-2.63-3.63a2.93 2.93 0 0 0-1.47-.41zm14.21 10.98H2.3a.75.75 0 1 1 0-1.5h18.75a.75.75 0 0 1 0 1.5z" class="cls-1"/><path d="M12 23.1a.75.75 0 0 1-.75-.75V6.84a.75.75 0 0 1 1.5 0v15.51a.75.75 0 0 1-.75.75z" class="cls-1"/></svg>