<svg xmlns="http://www.w3.org/2000/svg" width="20" height="20" fill="none"><path fill="#162A48" d="M2.5 2.5h1.667v1.667H2.5V2.5Zm3.333 0H7.5v1.667H5.833V2.5Zm3.334 0h1.666v1.667H9.167V2.5Zm3.333 0h1.667v1.667H12.5V2.5Zm3.333 0H17.5v1.667h-1.667V2.5Zm0 3.333H17.5V7.5h-1.667V5.833Zm-13.333 10h1.667V17.5H2.5v-1.667Zm0-3.333h1.667v1.667H2.5V12.5Zm0-3.333h1.667v1.666H2.5V9.167Zm0-3.334h1.667V7.5H2.5V5.833Zm6.39 3.334.862-1.296a.833.833 0 0 1 .694-.371h2.441a.834.834 0 0 1 .694.37l.863 1.297h2.223A.833.833 0 0 1 17.5 10v6.667a.833.833 0 0 1-.833.833h-10a.833.833 0 0 1-.834-.833V10a.833.833 0 0 1 .834-.833h2.222ZM7.5 15.833h8.333v-5h-2.28l-1.111-1.666h-1.55L9.78 10.833H7.5v5ZM11.667 15a1.666 1.666 0 1 1 0-3.333 1.666 1.666 0 0 1 0 3.333Z"/></svg>